<mxfile host="app.diagrams.net" modified="2023-03-06T04:49:31.815Z" agent="5.0 (Windows NT 10.0; Win64; x64) AppleWebKit/537.36 (KHTML, like Gecko) Chrome/109.0.0.0 Safari/537.36" etag="ssdo1Gypuc9soTDBqXbP" version="21.0.2" type="github">
  <diagram id="C5RBs43oDa-KdzZeNtuy" name="Page-1">
    <mxGraphModel dx="954" dy="616" grid="1" gridSize="10" guides="1" tooltips="1" connect="1" arrows="1" fold="1" page="1" pageScale="1" pageWidth="1654" pageHeight="2336" math="0" shadow="0">
      <root>
        <mxCell id="WIyWlLk6GJQsqaUBKTNV-0" />
        <mxCell id="WIyWlLk6GJQsqaUBKTNV-1" parent="WIyWlLk6GJQsqaUBKTNV-0" />
        <mxCell id="jFDYUNhrm1zR_3eTwmb9-5" style="edgeStyle=orthogonalEdgeStyle;rounded=0;orthogonalLoop=1;jettySize=auto;html=1;exitX=1;exitY=0.5;exitDx=0;exitDy=0;entryX=0;entryY=0.5;entryDx=0;entryDy=0;" edge="1" parent="WIyWlLk6GJQsqaUBKTNV-1" source="jFDYUNhrm1zR_3eTwmb9-0" target="jFDYUNhrm1zR_3eTwmb9-4">
          <mxGeometry relative="1" as="geometry" />
        </mxCell>
        <mxCell id="jFDYUNhrm1zR_3eTwmb9-0" value="1&lt;br&gt;Data Admin" style="ellipse;whiteSpace=wrap;html=1;aspect=fixed;" vertex="1" parent="WIyWlLk6GJQsqaUBKTNV-1">
          <mxGeometry x="787" y="70" width="80" height="80" as="geometry" />
        </mxCell>
        <mxCell id="jFDYUNhrm1zR_3eTwmb9-1" value="Data Admin" style="text;html=1;strokeColor=none;fillColor=none;align=center;verticalAlign=middle;whiteSpace=wrap;rounded=0;" vertex="1" parent="WIyWlLk6GJQsqaUBKTNV-1">
          <mxGeometry x="930" y="80" width="90" height="30" as="geometry" />
        </mxCell>
        <mxCell id="jFDYUNhrm1zR_3eTwmb9-7" style="edgeStyle=orthogonalEdgeStyle;rounded=0;orthogonalLoop=1;jettySize=auto;html=1;exitX=0.5;exitY=1;exitDx=0;exitDy=0;entryX=1;entryY=0.5;entryDx=0;entryDy=0;" edge="1" parent="WIyWlLk6GJQsqaUBKTNV-1" source="jFDYUNhrm1zR_3eTwmb9-4" target="jFDYUNhrm1zR_3eTwmb9-6">
          <mxGeometry relative="1" as="geometry" />
        </mxCell>
        <mxCell id="jFDYUNhrm1zR_3eTwmb9-4" value="Data Admin" style="rounded=0;whiteSpace=wrap;html=1;" vertex="1" parent="WIyWlLk6GJQsqaUBKTNV-1">
          <mxGeometry x="1080" y="80" width="120" height="60" as="geometry" />
        </mxCell>
        <mxCell id="jFDYUNhrm1zR_3eTwmb9-10" style="edgeStyle=orthogonalEdgeStyle;rounded=0;orthogonalLoop=1;jettySize=auto;html=1;exitX=0;exitY=0;exitDx=0;exitDy=0;entryX=0.75;entryY=1;entryDx=0;entryDy=0;" edge="1" parent="WIyWlLk6GJQsqaUBKTNV-1" source="jFDYUNhrm1zR_3eTwmb9-6">
          <mxGeometry relative="1" as="geometry">
            <mxPoint x="650" y="140" as="targetPoint" />
          </mxGeometry>
        </mxCell>
        <mxCell id="jFDYUNhrm1zR_3eTwmb9-31" style="edgeStyle=orthogonalEdgeStyle;rounded=0;orthogonalLoop=1;jettySize=auto;html=1;exitX=0;exitY=1;exitDx=0;exitDy=0;entryX=1;entryY=0.5;entryDx=0;entryDy=0;" edge="1" parent="WIyWlLk6GJQsqaUBKTNV-1" source="jFDYUNhrm1zR_3eTwmb9-6" target="jFDYUNhrm1zR_3eTwmb9-30">
          <mxGeometry relative="1" as="geometry">
            <Array as="points">
              <mxPoint x="650" y="238" />
              <mxPoint x="650" y="370" />
              <mxPoint x="620" y="370" />
            </Array>
          </mxGeometry>
        </mxCell>
        <mxCell id="jFDYUNhrm1zR_3eTwmb9-6" value="2&lt;br&gt;Login" style="ellipse;whiteSpace=wrap;html=1;aspect=fixed;" vertex="1" parent="WIyWlLk6GJQsqaUBKTNV-1">
          <mxGeometry x="787" y="180" width="80" height="80" as="geometry" />
        </mxCell>
        <mxCell id="jFDYUNhrm1zR_3eTwmb9-8" value="Melakukan" style="text;html=1;strokeColor=none;fillColor=none;align=center;verticalAlign=middle;whiteSpace=wrap;rounded=0;" vertex="1" parent="WIyWlLk6GJQsqaUBKTNV-1">
          <mxGeometry x="945" y="180" width="60" height="30" as="geometry" />
        </mxCell>
        <mxCell id="jFDYUNhrm1zR_3eTwmb9-11" value="Login Admin Sukses" style="text;html=1;strokeColor=none;fillColor=none;align=center;verticalAlign=middle;whiteSpace=wrap;rounded=0;" vertex="1" parent="WIyWlLk6GJQsqaUBKTNV-1">
          <mxGeometry x="660" y="150" width="140" height="30" as="geometry" />
        </mxCell>
        <mxCell id="jFDYUNhrm1zR_3eTwmb9-19" style="edgeStyle=orthogonalEdgeStyle;rounded=0;orthogonalLoop=1;jettySize=auto;html=1;exitX=0;exitY=0;exitDx=0;exitDy=0;entryX=0.333;entryY=1;entryDx=0;entryDy=0;entryPerimeter=0;" edge="1" parent="WIyWlLk6GJQsqaUBKTNV-1" source="jFDYUNhrm1zR_3eTwmb9-12" target="jFDYUNhrm1zR_3eTwmb9-24">
          <mxGeometry relative="1" as="geometry">
            <mxPoint x="590" y="140" as="targetPoint" />
          </mxGeometry>
        </mxCell>
        <mxCell id="jFDYUNhrm1zR_3eTwmb9-21" style="edgeStyle=orthogonalEdgeStyle;rounded=0;orthogonalLoop=1;jettySize=auto;html=1;exitX=1;exitY=0.5;exitDx=0;exitDy=0;entryX=0;entryY=0.5;entryDx=0;entryDy=0;" edge="1" parent="WIyWlLk6GJQsqaUBKTNV-1" source="jFDYUNhrm1zR_3eTwmb9-12" target="jFDYUNhrm1zR_3eTwmb9-13">
          <mxGeometry relative="1" as="geometry" />
        </mxCell>
        <mxCell id="jFDYUNhrm1zR_3eTwmb9-12" value="3&lt;br&gt;Data Karyawan" style="ellipse;whiteSpace=wrap;html=1;aspect=fixed;" vertex="1" parent="WIyWlLk6GJQsqaUBKTNV-1">
          <mxGeometry x="787" y="280" width="80" height="80" as="geometry" />
        </mxCell>
        <mxCell id="jFDYUNhrm1zR_3eTwmb9-14" style="edgeStyle=orthogonalEdgeStyle;rounded=0;orthogonalLoop=1;jettySize=auto;html=1;exitX=0.5;exitY=0;exitDx=0;exitDy=0;entryX=1;entryY=1;entryDx=0;entryDy=0;" edge="1" parent="WIyWlLk6GJQsqaUBKTNV-1" source="jFDYUNhrm1zR_3eTwmb9-13" target="jFDYUNhrm1zR_3eTwmb9-6">
          <mxGeometry relative="1" as="geometry">
            <Array as="points">
              <mxPoint x="1140" y="270" />
              <mxPoint x="855" y="270" />
            </Array>
          </mxGeometry>
        </mxCell>
        <mxCell id="jFDYUNhrm1zR_3eTwmb9-13" value="Data Karyawan" style="rounded=0;whiteSpace=wrap;html=1;" vertex="1" parent="WIyWlLk6GJQsqaUBKTNV-1">
          <mxGeometry x="1080" y="290" width="120" height="60" as="geometry" />
        </mxCell>
        <mxCell id="jFDYUNhrm1zR_3eTwmb9-15" value="Melakukan" style="text;html=1;strokeColor=none;fillColor=none;align=center;verticalAlign=middle;whiteSpace=wrap;rounded=0;" vertex="1" parent="WIyWlLk6GJQsqaUBKTNV-1">
          <mxGeometry x="945" y="240" width="60" height="30" as="geometry" />
        </mxCell>
        <mxCell id="jFDYUNhrm1zR_3eTwmb9-20" value="Detail Data Karyawan" style="text;html=1;strokeColor=none;fillColor=none;align=center;verticalAlign=middle;whiteSpace=wrap;rounded=0;" vertex="1" parent="WIyWlLk6GJQsqaUBKTNV-1">
          <mxGeometry x="657" y="260" width="130" height="30" as="geometry" />
        </mxCell>
        <mxCell id="jFDYUNhrm1zR_3eTwmb9-22" value="Data Karyawan" style="text;html=1;strokeColor=none;fillColor=none;align=center;verticalAlign=middle;whiteSpace=wrap;rounded=0;" vertex="1" parent="WIyWlLk6GJQsqaUBKTNV-1">
          <mxGeometry x="930" y="290" width="100" height="30" as="geometry" />
        </mxCell>
        <mxCell id="jFDYUNhrm1zR_3eTwmb9-27" style="edgeStyle=orthogonalEdgeStyle;rounded=0;orthogonalLoop=1;jettySize=auto;html=1;exitX=0.5;exitY=1;exitDx=0;exitDy=0;entryX=0;entryY=0.5;entryDx=0;entryDy=0;" edge="1" parent="WIyWlLk6GJQsqaUBKTNV-1" source="jFDYUNhrm1zR_3eTwmb9-24" target="jFDYUNhrm1zR_3eTwmb9-12">
          <mxGeometry relative="1" as="geometry" />
        </mxCell>
        <mxCell id="jFDYUNhrm1zR_3eTwmb9-24" value="ADMIN" style="rounded=1;whiteSpace=wrap;html=1;" vertex="1" parent="WIyWlLk6GJQsqaUBKTNV-1">
          <mxGeometry x="550" y="80" width="120" height="60" as="geometry" />
        </mxCell>
        <mxCell id="jFDYUNhrm1zR_3eTwmb9-28" value="Input Data Karyawan" style="text;html=1;strokeColor=none;fillColor=none;align=center;verticalAlign=middle;whiteSpace=wrap;rounded=0;" vertex="1" parent="WIyWlLk6GJQsqaUBKTNV-1">
          <mxGeometry x="646" y="290" width="152" height="30" as="geometry" />
        </mxCell>
        <mxCell id="jFDYUNhrm1zR_3eTwmb9-34" style="edgeStyle=orthogonalEdgeStyle;rounded=0;orthogonalLoop=1;jettySize=auto;html=1;exitX=1;exitY=0.75;exitDx=0;exitDy=0;entryX=0;entryY=0.5;entryDx=0;entryDy=0;" edge="1" parent="WIyWlLk6GJQsqaUBKTNV-1" source="jFDYUNhrm1zR_3eTwmb9-30" target="jFDYUNhrm1zR_3eTwmb9-33">
          <mxGeometry relative="1" as="geometry">
            <Array as="points">
              <mxPoint x="750" y="385" />
              <mxPoint x="750" y="420" />
            </Array>
          </mxGeometry>
        </mxCell>
        <mxCell id="jFDYUNhrm1zR_3eTwmb9-54" style="edgeStyle=orthogonalEdgeStyle;rounded=0;orthogonalLoop=1;jettySize=auto;html=1;exitX=0;exitY=1;exitDx=0;exitDy=0;entryX=0;entryY=0.5;entryDx=0;entryDy=0;" edge="1" parent="WIyWlLk6GJQsqaUBKTNV-1" source="jFDYUNhrm1zR_3eTwmb9-30" target="jFDYUNhrm1zR_3eTwmb9-51">
          <mxGeometry relative="1" as="geometry" />
        </mxCell>
        <mxCell id="jFDYUNhrm1zR_3eTwmb9-59" style="edgeStyle=orthogonalEdgeStyle;rounded=0;orthogonalLoop=1;jettySize=auto;html=1;exitX=0.5;exitY=1;exitDx=0;exitDy=0;entryX=0;entryY=0;entryDx=0;entryDy=0;" edge="1" parent="WIyWlLk6GJQsqaUBKTNV-1" source="jFDYUNhrm1zR_3eTwmb9-30" target="jFDYUNhrm1zR_3eTwmb9-58">
          <mxGeometry relative="1" as="geometry">
            <Array as="points">
              <mxPoint x="560" y="680" />
              <mxPoint x="799" y="680" />
            </Array>
          </mxGeometry>
        </mxCell>
        <mxCell id="jFDYUNhrm1zR_3eTwmb9-30" value="KARYAWAN" style="rounded=1;whiteSpace=wrap;html=1;" vertex="1" parent="WIyWlLk6GJQsqaUBKTNV-1">
          <mxGeometry x="500" y="340" width="120" height="60" as="geometry" />
        </mxCell>
        <mxCell id="jFDYUNhrm1zR_3eTwmb9-32" value="Login Karyawan Sukses" style="text;html=1;strokeColor=none;fillColor=none;align=center;verticalAlign=middle;whiteSpace=wrap;rounded=0;" vertex="1" parent="WIyWlLk6GJQsqaUBKTNV-1">
          <mxGeometry x="632" y="210" width="180" height="30" as="geometry" />
        </mxCell>
        <mxCell id="jFDYUNhrm1zR_3eTwmb9-36" style="edgeStyle=orthogonalEdgeStyle;rounded=0;orthogonalLoop=1;jettySize=auto;html=1;exitX=0;exitY=1;exitDx=0;exitDy=0;entryX=0.75;entryY=1;entryDx=0;entryDy=0;" edge="1" parent="WIyWlLk6GJQsqaUBKTNV-1" source="jFDYUNhrm1zR_3eTwmb9-33" target="jFDYUNhrm1zR_3eTwmb9-30">
          <mxGeometry relative="1" as="geometry" />
        </mxCell>
        <mxCell id="jFDYUNhrm1zR_3eTwmb9-39" style="edgeStyle=orthogonalEdgeStyle;rounded=0;orthogonalLoop=1;jettySize=auto;html=1;exitX=1;exitY=0.5;exitDx=0;exitDy=0;entryX=0;entryY=0.5;entryDx=0;entryDy=0;" edge="1" parent="WIyWlLk6GJQsqaUBKTNV-1" source="jFDYUNhrm1zR_3eTwmb9-33" target="jFDYUNhrm1zR_3eTwmb9-38">
          <mxGeometry relative="1" as="geometry" />
        </mxCell>
        <mxCell id="jFDYUNhrm1zR_3eTwmb9-47" style="edgeStyle=orthogonalEdgeStyle;rounded=0;orthogonalLoop=1;jettySize=auto;html=1;exitX=0.5;exitY=1;exitDx=0;exitDy=0;entryX=0;entryY=0.75;entryDx=0;entryDy=0;" edge="1" parent="WIyWlLk6GJQsqaUBKTNV-1" source="jFDYUNhrm1zR_3eTwmb9-33" target="jFDYUNhrm1zR_3eTwmb9-24">
          <mxGeometry relative="1" as="geometry">
            <Array as="points">
              <mxPoint x="827" y="480" />
              <mxPoint x="430" y="480" />
              <mxPoint x="430" y="125" />
            </Array>
          </mxGeometry>
        </mxCell>
        <mxCell id="jFDYUNhrm1zR_3eTwmb9-33" value="4&lt;br&gt;Transaksi Masuk" style="ellipse;whiteSpace=wrap;html=1;aspect=fixed;" vertex="1" parent="WIyWlLk6GJQsqaUBKTNV-1">
          <mxGeometry x="787" y="380" width="80" height="80" as="geometry" />
        </mxCell>
        <mxCell id="jFDYUNhrm1zR_3eTwmb9-35" value="Input Data Laundry" style="text;html=1;strokeColor=none;fillColor=none;align=center;verticalAlign=middle;whiteSpace=wrap;rounded=0;" vertex="1" parent="WIyWlLk6GJQsqaUBKTNV-1">
          <mxGeometry x="670" y="355" width="78" height="30" as="geometry" />
        </mxCell>
        <mxCell id="jFDYUNhrm1zR_3eTwmb9-37" value="Detail Transaksi Laundry" style="text;html=1;strokeColor=none;fillColor=none;align=center;verticalAlign=middle;whiteSpace=wrap;rounded=0;" vertex="1" parent="WIyWlLk6GJQsqaUBKTNV-1">
          <mxGeometry x="602" y="420" width="214" height="30" as="geometry" />
        </mxCell>
        <mxCell id="jFDYUNhrm1zR_3eTwmb9-42" style="edgeStyle=orthogonalEdgeStyle;rounded=0;orthogonalLoop=1;jettySize=auto;html=1;exitX=0.5;exitY=0;exitDx=0;exitDy=0;entryX=0;entryY=0.5;entryDx=0;entryDy=0;" edge="1" parent="WIyWlLk6GJQsqaUBKTNV-1" source="jFDYUNhrm1zR_3eTwmb9-38" target="jFDYUNhrm1zR_3eTwmb9-41">
          <mxGeometry relative="1" as="geometry" />
        </mxCell>
        <mxCell id="jFDYUNhrm1zR_3eTwmb9-49" style="edgeStyle=orthogonalEdgeStyle;rounded=0;orthogonalLoop=1;jettySize=auto;html=1;exitX=0.5;exitY=1;exitDx=0;exitDy=0;" edge="1" parent="WIyWlLk6GJQsqaUBKTNV-1" source="jFDYUNhrm1zR_3eTwmb9-38">
          <mxGeometry relative="1" as="geometry">
            <mxPoint x="540" y="400" as="targetPoint" />
            <Array as="points">
              <mxPoint x="1140" y="540" />
              <mxPoint x="540" y="540" />
            </Array>
          </mxGeometry>
        </mxCell>
        <mxCell id="jFDYUNhrm1zR_3eTwmb9-80" style="edgeStyle=orthogonalEdgeStyle;rounded=0;orthogonalLoop=1;jettySize=auto;html=1;exitX=1;exitY=0.75;exitDx=0;exitDy=0;entryX=1;entryY=0.5;entryDx=0;entryDy=0;" edge="1" parent="WIyWlLk6GJQsqaUBKTNV-1" source="jFDYUNhrm1zR_3eTwmb9-38" target="jFDYUNhrm1zR_3eTwmb9-67">
          <mxGeometry relative="1" as="geometry" />
        </mxCell>
        <mxCell id="jFDYUNhrm1zR_3eTwmb9-38" value="Data Transaksi Laundry" style="rounded=0;whiteSpace=wrap;html=1;" vertex="1" parent="WIyWlLk6GJQsqaUBKTNV-1">
          <mxGeometry x="1080" y="390" width="120" height="60" as="geometry" />
        </mxCell>
        <mxCell id="jFDYUNhrm1zR_3eTwmb9-40" value="Data Laundry Transaksi" style="text;html=1;strokeColor=none;fillColor=none;align=center;verticalAlign=middle;whiteSpace=wrap;rounded=0;" vertex="1" parent="WIyWlLk6GJQsqaUBKTNV-1">
          <mxGeometry x="892.5" y="390" width="165" height="30" as="geometry" />
        </mxCell>
        <mxCell id="jFDYUNhrm1zR_3eTwmb9-43" style="edgeStyle=orthogonalEdgeStyle;rounded=0;orthogonalLoop=1;jettySize=auto;html=1;exitX=0.5;exitY=1;exitDx=0;exitDy=0;entryX=1;entryY=0.5;entryDx=0;entryDy=0;" edge="1" parent="WIyWlLk6GJQsqaUBKTNV-1" source="jFDYUNhrm1zR_3eTwmb9-41" target="jFDYUNhrm1zR_3eTwmb9-38">
          <mxGeometry relative="1" as="geometry" />
        </mxCell>
        <mxCell id="jFDYUNhrm1zR_3eTwmb9-41" value="KONSUMEN" style="rounded=1;whiteSpace=wrap;html=1;" vertex="1" parent="WIyWlLk6GJQsqaUBKTNV-1">
          <mxGeometry x="1330" y="330" width="120" height="60" as="geometry" />
        </mxCell>
        <mxCell id="jFDYUNhrm1zR_3eTwmb9-44" value="Memantau Status Laundry" style="text;html=1;strokeColor=none;fillColor=none;align=center;verticalAlign=middle;whiteSpace=wrap;rounded=0;" vertex="1" parent="WIyWlLk6GJQsqaUBKTNV-1">
          <mxGeometry x="1240" y="390" width="90" height="30" as="geometry" />
        </mxCell>
        <mxCell id="jFDYUNhrm1zR_3eTwmb9-45" value="Data Laundry Konsumen" style="text;html=1;strokeColor=none;fillColor=none;align=center;verticalAlign=middle;whiteSpace=wrap;rounded=0;" vertex="1" parent="WIyWlLk6GJQsqaUBKTNV-1">
          <mxGeometry x="1220" y="330" width="90" height="30" as="geometry" />
        </mxCell>
        <mxCell id="jFDYUNhrm1zR_3eTwmb9-48" value="Informasi Data Laundry Masuk" style="text;html=1;strokeColor=none;fillColor=none;align=center;verticalAlign=middle;whiteSpace=wrap;rounded=0;" vertex="1" parent="WIyWlLk6GJQsqaUBKTNV-1">
          <mxGeometry x="618.5" y="450" width="181" height="30" as="geometry" />
        </mxCell>
        <mxCell id="jFDYUNhrm1zR_3eTwmb9-50" value="Ambil Data Transaksi Laundry Masuk" style="text;html=1;strokeColor=none;fillColor=none;align=center;verticalAlign=middle;whiteSpace=wrap;rounded=0;" vertex="1" parent="WIyWlLk6GJQsqaUBKTNV-1">
          <mxGeometry x="707" y="510" width="240" height="30" as="geometry" />
        </mxCell>
        <mxCell id="jFDYUNhrm1zR_3eTwmb9-52" style="edgeStyle=orthogonalEdgeStyle;rounded=0;orthogonalLoop=1;jettySize=auto;html=1;exitX=1;exitY=0.5;exitDx=0;exitDy=0;entryX=0.25;entryY=1;entryDx=0;entryDy=0;" edge="1" parent="WIyWlLk6GJQsqaUBKTNV-1" source="jFDYUNhrm1zR_3eTwmb9-51" target="jFDYUNhrm1zR_3eTwmb9-38">
          <mxGeometry relative="1" as="geometry" />
        </mxCell>
        <mxCell id="jFDYUNhrm1zR_3eTwmb9-56" style="edgeStyle=orthogonalEdgeStyle;rounded=0;orthogonalLoop=1;jettySize=auto;html=1;exitX=0;exitY=1;exitDx=0;exitDy=0;" edge="1" parent="WIyWlLk6GJQsqaUBKTNV-1" source="jFDYUNhrm1zR_3eTwmb9-51">
          <mxGeometry relative="1" as="geometry">
            <mxPoint x="513" y="400" as="targetPoint" />
          </mxGeometry>
        </mxCell>
        <mxCell id="jFDYUNhrm1zR_3eTwmb9-51" value="5&lt;br&gt;Perubahan Status" style="ellipse;whiteSpace=wrap;html=1;aspect=fixed;" vertex="1" parent="WIyWlLk6GJQsqaUBKTNV-1">
          <mxGeometry x="787" y="570" width="80" height="80" as="geometry" />
        </mxCell>
        <mxCell id="jFDYUNhrm1zR_3eTwmb9-53" value="Data Update Status" style="text;html=1;strokeColor=none;fillColor=none;align=center;verticalAlign=middle;whiteSpace=wrap;rounded=0;" vertex="1" parent="WIyWlLk6GJQsqaUBKTNV-1">
          <mxGeometry x="912.5" y="580" width="135" height="30" as="geometry" />
        </mxCell>
        <mxCell id="jFDYUNhrm1zR_3eTwmb9-55" value="Mengubah Status Pesanan" style="text;html=1;strokeColor=none;fillColor=none;align=center;verticalAlign=middle;whiteSpace=wrap;rounded=0;" vertex="1" parent="WIyWlLk6GJQsqaUBKTNV-1">
          <mxGeometry x="596.5" y="580" width="151.5" height="30" as="geometry" />
        </mxCell>
        <mxCell id="jFDYUNhrm1zR_3eTwmb9-57" value="Data Status Pesanan" style="text;html=1;strokeColor=none;fillColor=none;align=center;verticalAlign=middle;whiteSpace=wrap;rounded=0;" vertex="1" parent="WIyWlLk6GJQsqaUBKTNV-1">
          <mxGeometry x="600.13" y="610" width="144.25" height="30" as="geometry" />
        </mxCell>
        <mxCell id="jFDYUNhrm1zR_3eTwmb9-61" style="edgeStyle=orthogonalEdgeStyle;rounded=0;orthogonalLoop=1;jettySize=auto;html=1;exitX=0;exitY=0;exitDx=0;exitDy=0;" edge="1" parent="WIyWlLk6GJQsqaUBKTNV-1" source="jFDYUNhrm1zR_3eTwmb9-58">
          <mxGeometry relative="1" as="geometry">
            <mxPoint x="575" y="400" as="targetPoint" />
            <Array as="points">
              <mxPoint x="799" y="730" />
              <mxPoint x="575" y="730" />
            </Array>
          </mxGeometry>
        </mxCell>
        <mxCell id="jFDYUNhrm1zR_3eTwmb9-63" style="edgeStyle=orthogonalEdgeStyle;rounded=0;orthogonalLoop=1;jettySize=auto;html=1;exitX=1;exitY=0.5;exitDx=0;exitDy=0;entryX=0.75;entryY=1;entryDx=0;entryDy=0;" edge="1" parent="WIyWlLk6GJQsqaUBKTNV-1" source="jFDYUNhrm1zR_3eTwmb9-58" target="jFDYUNhrm1zR_3eTwmb9-38">
          <mxGeometry relative="1" as="geometry" />
        </mxCell>
        <mxCell id="jFDYUNhrm1zR_3eTwmb9-65" style="edgeStyle=orthogonalEdgeStyle;rounded=0;orthogonalLoop=1;jettySize=auto;html=1;exitX=0;exitY=0.5;exitDx=0;exitDy=0;entryX=0;entryY=0.25;entryDx=0;entryDy=0;" edge="1" parent="WIyWlLk6GJQsqaUBKTNV-1" source="jFDYUNhrm1zR_3eTwmb9-58" target="jFDYUNhrm1zR_3eTwmb9-24">
          <mxGeometry relative="1" as="geometry">
            <Array as="points">
              <mxPoint x="400" y="760" />
              <mxPoint x="400" y="95" />
            </Array>
          </mxGeometry>
        </mxCell>
        <mxCell id="jFDYUNhrm1zR_3eTwmb9-58" value="6&lt;br&gt;Pengambilan Laundry" style="ellipse;whiteSpace=wrap;html=1;aspect=fixed;" vertex="1" parent="WIyWlLk6GJQsqaUBKTNV-1">
          <mxGeometry x="787" y="720" width="80" height="80" as="geometry" />
        </mxCell>
        <mxCell id="jFDYUNhrm1zR_3eTwmb9-60" value="Input Data Pengambilan Laundry" style="text;html=1;strokeColor=none;fillColor=none;align=center;verticalAlign=middle;whiteSpace=wrap;rounded=0;" vertex="1" parent="WIyWlLk6GJQsqaUBKTNV-1">
          <mxGeometry x="596.5" y="650" width="194.24" height="30" as="geometry" />
        </mxCell>
        <mxCell id="jFDYUNhrm1zR_3eTwmb9-62" value="Data Pengambilan Laundry" style="text;html=1;strokeColor=none;fillColor=none;align=center;verticalAlign=middle;whiteSpace=wrap;rounded=0;" vertex="1" parent="WIyWlLk6GJQsqaUBKTNV-1">
          <mxGeometry x="596.5" y="700" width="160" height="30" as="geometry" />
        </mxCell>
        <mxCell id="jFDYUNhrm1zR_3eTwmb9-64" value="Data Update Status Pengembalian" style="text;html=1;strokeColor=none;fillColor=none;align=center;verticalAlign=middle;whiteSpace=wrap;rounded=0;" vertex="1" parent="WIyWlLk6GJQsqaUBKTNV-1">
          <mxGeometry x="892.5" y="730" width="220" height="30" as="geometry" />
        </mxCell>
        <mxCell id="jFDYUNhrm1zR_3eTwmb9-66" value="Informasi Data Laundry Keluar" style="text;html=1;strokeColor=none;fillColor=none;align=center;verticalAlign=middle;whiteSpace=wrap;rounded=0;" vertex="1" parent="WIyWlLk6GJQsqaUBKTNV-1">
          <mxGeometry x="490" y="730" width="190" height="30" as="geometry" />
        </mxCell>
        <mxCell id="jFDYUNhrm1zR_3eTwmb9-69" style="edgeStyle=orthogonalEdgeStyle;rounded=0;orthogonalLoop=1;jettySize=auto;html=1;exitX=0;exitY=0.5;exitDx=0;exitDy=0;entryX=1;entryY=0.5;entryDx=0;entryDy=0;" edge="1" parent="WIyWlLk6GJQsqaUBKTNV-1" source="jFDYUNhrm1zR_3eTwmb9-67" target="jFDYUNhrm1zR_3eTwmb9-68">
          <mxGeometry relative="1" as="geometry" />
        </mxCell>
        <mxCell id="jFDYUNhrm1zR_3eTwmb9-70" style="edgeStyle=orthogonalEdgeStyle;rounded=0;orthogonalLoop=1;jettySize=auto;html=1;exitX=0;exitY=1;exitDx=0;exitDy=0;entryX=0.75;entryY=1;entryDx=0;entryDy=0;" edge="1" parent="WIyWlLk6GJQsqaUBKTNV-1" source="jFDYUNhrm1zR_3eTwmb9-67" target="jFDYUNhrm1zR_3eTwmb9-68">
          <mxGeometry relative="1" as="geometry">
            <Array as="points">
              <mxPoint x="799" y="1000" />
              <mxPoint x="440" y="1000" />
            </Array>
          </mxGeometry>
        </mxCell>
        <mxCell id="jFDYUNhrm1zR_3eTwmb9-71" style="edgeStyle=orthogonalEdgeStyle;rounded=0;orthogonalLoop=1;jettySize=auto;html=1;exitX=0.5;exitY=1;exitDx=0;exitDy=0;entryX=0.5;entryY=1;entryDx=0;entryDy=0;" edge="1" parent="WIyWlLk6GJQsqaUBKTNV-1" source="jFDYUNhrm1zR_3eTwmb9-67" target="jFDYUNhrm1zR_3eTwmb9-68">
          <mxGeometry relative="1" as="geometry">
            <Array as="points">
              <mxPoint x="827" y="1070" />
              <mxPoint x="410" y="1070" />
            </Array>
          </mxGeometry>
        </mxCell>
        <mxCell id="jFDYUNhrm1zR_3eTwmb9-82" style="edgeStyle=orthogonalEdgeStyle;rounded=0;orthogonalLoop=1;jettySize=auto;html=1;exitX=1;exitY=1;exitDx=0;exitDy=0;entryX=1;entryY=0.5;entryDx=0;entryDy=0;" edge="1" parent="WIyWlLk6GJQsqaUBKTNV-1" source="jFDYUNhrm1zR_3eTwmb9-67" target="jFDYUNhrm1zR_3eTwmb9-13">
          <mxGeometry relative="1" as="geometry">
            <Array as="points">
              <mxPoint x="1470" y="968" />
              <mxPoint x="1470" y="320" />
            </Array>
          </mxGeometry>
        </mxCell>
        <mxCell id="jFDYUNhrm1zR_3eTwmb9-67" value="7&lt;br&gt;Laporan" style="ellipse;whiteSpace=wrap;html=1;aspect=fixed;" vertex="1" parent="WIyWlLk6GJQsqaUBKTNV-1">
          <mxGeometry x="787" y="900" width="80" height="80" as="geometry" />
        </mxCell>
        <mxCell id="jFDYUNhrm1zR_3eTwmb9-77" style="edgeStyle=orthogonalEdgeStyle;rounded=0;orthogonalLoop=1;jettySize=auto;html=1;exitX=0.5;exitY=0;exitDx=0;exitDy=0;entryX=0.5;entryY=1;entryDx=0;entryDy=0;" edge="1" parent="WIyWlLk6GJQsqaUBKTNV-1" source="jFDYUNhrm1zR_3eTwmb9-68" target="jFDYUNhrm1zR_3eTwmb9-0">
          <mxGeometry relative="1" as="geometry">
            <Array as="points">
              <mxPoint x="410" y="850" />
              <mxPoint x="1510" y="850" />
              <mxPoint x="1510" y="170" />
              <mxPoint x="827" y="170" />
            </Array>
          </mxGeometry>
        </mxCell>
        <mxCell id="jFDYUNhrm1zR_3eTwmb9-68" value="PEMILIK" style="rounded=1;whiteSpace=wrap;html=1;" vertex="1" parent="WIyWlLk6GJQsqaUBKTNV-1">
          <mxGeometry x="350" y="910" width="120" height="60" as="geometry" />
        </mxCell>
        <mxCell id="jFDYUNhrm1zR_3eTwmb9-72" value="Laporan Karyawan" style="text;html=1;strokeColor=none;fillColor=none;align=center;verticalAlign=middle;whiteSpace=wrap;rounded=0;" vertex="1" parent="WIyWlLk6GJQsqaUBKTNV-1">
          <mxGeometry x="560" y="910" width="140" height="30" as="geometry" />
        </mxCell>
        <mxCell id="jFDYUNhrm1zR_3eTwmb9-73" value="Laporan Transaksi" style="text;html=1;strokeColor=none;fillColor=none;align=center;verticalAlign=middle;whiteSpace=wrap;rounded=0;" vertex="1" parent="WIyWlLk6GJQsqaUBKTNV-1">
          <mxGeometry x="573.25" y="970" width="113.5" height="30" as="geometry" />
        </mxCell>
        <mxCell id="jFDYUNhrm1zR_3eTwmb9-74" value="Laporan Penghasilan" style="text;html=1;strokeColor=none;fillColor=none;align=center;verticalAlign=middle;whiteSpace=wrap;rounded=0;" vertex="1" parent="WIyWlLk6GJQsqaUBKTNV-1">
          <mxGeometry x="554" y="1040" width="153" height="30" as="geometry" />
        </mxCell>
        <mxCell id="jFDYUNhrm1zR_3eTwmb9-78" value="Input Data Admin" style="text;html=1;strokeColor=none;fillColor=none;align=center;verticalAlign=middle;whiteSpace=wrap;rounded=0;" vertex="1" parent="WIyWlLk6GJQsqaUBKTNV-1">
          <mxGeometry x="932.5" y="820" width="140" height="30" as="geometry" />
        </mxCell>
        <mxCell id="jFDYUNhrm1zR_3eTwmb9-81" value="Data Transaksi Laundry" style="text;html=1;strokeColor=none;fillColor=none;align=center;verticalAlign=middle;whiteSpace=wrap;rounded=0;" vertex="1" parent="WIyWlLk6GJQsqaUBKTNV-1">
          <mxGeometry x="937.5" y="910" width="130" height="30" as="geometry" />
        </mxCell>
        <mxCell id="jFDYUNhrm1zR_3eTwmb9-83" value="Data Karyawan" style="text;html=1;strokeColor=none;fillColor=none;align=center;verticalAlign=middle;whiteSpace=wrap;rounded=0;" vertex="1" parent="WIyWlLk6GJQsqaUBKTNV-1">
          <mxGeometry x="1100" y="940" width="120" height="30" as="geometry" />
        </mxCell>
      </root>
    </mxGraphModel>
  </diagram>
</mxfile>
